<?xml version="1.0" encoding="UTF-8" standalone="no"?>
<svg
   xmlns:dc="http://purl.org/dc/elements/1.1/"
   xmlns:cc="http://creativecommons.org/ns#"
   xmlns:rdf="http://www.w3.org/1999/02/22-rdf-syntax-ns#"
   xmlns:svg="http://www.w3.org/2000/svg"
   xmlns="http://www.w3.org/2000/svg"
   viewBox="0 0 206.18668 269.14667"
   height="269.14667"
   width="206.18668"
   xml:space="preserve"
   id="svg2"
   version="1.1"><metadata
     id="metadata8"><rdf:RDF><cc:Work
         rdf:about=""><dc:format>image/svg+xml</dc:format><dc:type
           rdf:resource="http://purl.org/dc/dcmitype/StillImage" /></cc:Work></rdf:RDF></metadata><defs
     id="defs6"><clipPath
       id="clipPath20"
       clipPathUnits="userSpaceOnUse"><path
         id="path18"
         d="M 0,0 H 1546 V 2018.64 H 0 Z" /></clipPath></defs><g
     transform="matrix(1.3333333,0,0,-1.3333333,0,269.14667)"
     id="g10"><g
       transform="scale(0.1)"
       id="g12"><g
         id="g14"><g
           clip-path="url(#clipPath20)"
           id="g16"><path
             id="path22"
             style="fill:#231f20;fill-opacity:1;fill-rule:nonzero;stroke:none"
             d="m 398.68,1592.69 c 3.031,14.97 55.957,35.73 74.582,36.53 0.711,0 2.05,0 3.3,0 10.333,0 22.54,-1.78 29.668,-6.05 8.114,-5.36 9.903,-21.57 16.219,-26.38 10.871,-8.91 22.551,-3.03 30.031,-11.94 22.461,-26.64 -21.476,-32.17 -24.679,-49.46 -4.363,-19.25 15.422,-49.19 24.679,-65.86 29.051,-54.53 52.852,-91.07 85.547,-142.04 6.328,-9.62 12.481,-25.13 19.52,-26.38 h 1.515 c 7.84,0 11.407,9.9 21.836,11.95 h 2.317 c 2.488,0 4.812,0 6.765,-0.71 1.786,-0.27 4.375,-0.54 6.153,-0.54 0.976,0 1.512,0 1.512,0 17.199,3.03 50.167,44.37 61.574,58.28 53.027,65.41 110.058,132.6 167.351,190.16 41.438,41.35 86.17,76.81 128.06,111.84 52.21,43.84 112.55,74.05 154.61,122.43 3.02,1.79 6.59,2.5 10.42,2.5 12.92,0 26.65,-10.34 33.68,-19.52 8.38,-10.15 12.66,-29.13 22.46,-30.11 h 0.35 c 14.36,0 15.25,24.77 25.4,26.55 1.52,0 1.88,0 3.04,0 11.13,0 19.24,-11.85 19.24,-18.44 0.27,-14.18 -18.26,-17.74 -23.34,-32.71 -3.75,-9.89 1.78,-16.04 -5.44,-25.84 -2.68,-2.05 -5.97,-2.32 -9.27,-2.32 -2.5,0 -4.81,0 -7.58,0.27 -2.05,0.44 -4.54,0.44 -7.13,0.44 -1.24,0 -1.77,0 -3.29,0 -9.09,-0.71 -16.67,-8.38 -24.6,-8.38 -1.95,0 -3.47,0 -5.52,0.54 -3.03,9.45 6.6,17.02 5.7,26.11 -1.69,10.96 -14.34,21.83 -26.28,22.37 h -1.25 c -17.74,0 -34.22,-21.56 -47.94,-32.44 -45.1,-35.55 -96.33,-72.8 -137.86,-108.27 -14.26,-11.67 -28.15,-26.65 -42.151,-40.1 -27.711,-28.42 -50.875,-55.78 -76.277,-87.41 -12.207,-14.53 -27.618,-31.73 -26.192,-52.05 1.504,-0.17 3.113,-0.17 4.356,-0.17 9.629,0 17.558,9.35 24.16,14.61 23.789,20.05 46.242,42.6 71.551,62.65 33.863,25.92 63.623,57.29 101.583,78.15 -33.23,-42.15 -74.05,-74.33 -111.923,-112.11 -12.559,-12.92 -29.043,-20.76 -41.973,-32.7 -33.769,-32.17 -66.211,-65.14 -98.906,-104 -14.973,-18.17 -35.469,-31.36 -47.852,-53.19 -5.527,-10.16 -10.429,-23.08 -15.508,-35.2 -5.078,-11.94 -13.195,-23.89 -15.507,-35.55 -4.368,-17.02 1.336,-36.99 -4.278,-54.46 -2.765,-9.44 -13.281,-14.26 -15.508,-26.19 -2.753,-14.98 11.942,-42.78 18.536,-60.6 2.949,-9.36 6.863,-19.25 10.156,-29.14 3.664,-9.62 9.902,-18.44 11.941,-27.08 3.039,-14.179 0,-26.921 1.25,-38.781 0.715,-6.59 5.344,-11.668 7.578,-19.769 l 2.856,-15.508 c 2.762,-8.91 11.582,-14.973 12.379,-22.551 1.789,-5.609 -1.512,-12.922 -0.535,-18.98 1.785,-30.743 19.785,-59.61 26.652,-88.582 11.402,-45.618 18.621,-90.168 33.941,-130 18.45,-47.411 32.707,-98.649 51.243,-144.809 2.5,-6.781 7.488,-12.391 10.253,-19.25 6.766,-16.93 6.766,-37.25 23.25,-48.66 11.86,23.531 -7.128,72.988 8.118,95.09 10.07,-6.59 14.699,-20.758 20.222,-33.508 12.032,-23.082 52.215,-84.391 9.895,-102.922 -10.52,-4.281 -19.512,-4.281 -21.125,-11.68 -4.012,-15.23 21.652,-29.14 16.672,-44.281 -1.965,-6.43 -7.668,-9.719 -14.082,-9.719 -3.75,0 -8.106,1.34 -11.582,3.289 -8.379,4.371 -11.407,15.52 -14.883,22.11 -8.469,17.73 -17.649,33.5 -31.016,42.859 -7.929,-4.359 -2.051,-25.387 -0.89,-38.848 1.066,-21.48 -0.625,-50.71 -20.672,-50.71 -1.516,0 -4.102,0 -6.953,1.082 -13.36,4 -9.805,34.48 -12.832,56.218 -6.504,43.399 -17.461,71.02 -23.614,111.84 -2.765,19.781 -4.543,41.078 -8.816,58.539 -7.754,28.43 -25.852,59.09 -36.809,90.813 -22.539,62.816 -48.926,120.918 -68.703,185.797 -10.164,33.23 -23.973,64.16 -32.703,94.363 -4.016,14.707 -3.566,32.18 -15.422,36.18 -10.691,-11.403 -10.691,-28.872 -12.117,-42.59 -0.09,-7.852 0.898,-16.66 0,-25.043 -1.875,-26.91 -9.981,-55.34 -13.184,-84.387 -2.589,-28.961 -15.058,-55.781 -15.332,-82.16 -0.175,-9.633 3.301,-20.32 4.364,-31.723 0,-9.359 -2.039,-20.769 -1.512,-32.168 0.449,-16.492 8.105,-33.781 6.418,-45.453 -1.606,-12.379 -20.676,-30.656 -34.035,-32.43 -1.614,-0.277 -3.301,-0.277 -4.903,-0.277 -17.207,0 -40.996,8.918 -54.804,18.27 -11.582,8.379 -29.317,26.648 -27.004,40.55 1.515,13.989 34.66,14.438 42.511,24.59 3.29,4.367 14.524,31.731 15.762,39.297 3.574,20.863 2.5,46.703 3.836,69.953 1.965,22.91 7.043,44.199 9.356,65.231 2.05,19.25 1.25,34.758 6.418,51.957 4.187,14.972 8.554,30.383 13.105,45.351 9.082,30.66 22.813,60.16 27.352,90.01 2.765,19.06 4.367,44.91 6.054,65.4 1.34,12.75 0.274,27.63 -1.961,37.25 -3.293,9.72 -12.296,15.24 -14.699,26.2 -1.062,5.52 1.516,12.65 0,18.45 -4.101,13.99 -28.691,20.32 -28.426,38.85 0.536,18.27 32.442,17.47 36.532,32.71 0.988,5.79 -4.09,11.93 -4.364,19.51 -0.175,7.31 4.364,14.44 2.852,22.01 -1.336,6.59 -10.695,16.75 -16.934,25.84 -33.945,48.47 -72.715,96.42 -105.597,148.37 -5.879,9.89 -9.891,20.5 -16.922,24.86 -6.328,4.02 -13.731,3.03 -22.11,6.6 -8.554,3.56 -21.289,11.58 -32.433,17.73 -20.223,11.41 -33.856,16.67 -42.059,37.78 -3.828,10.88 -9.179,33.69 -7.394,41.8 m 217.785,-9.09 c 4.637,6.78 16.758,11.4 25.137,18.53 6.589,5.8 9.882,15.68 17.996,22.01 9.894,8.11 25.214,14 41.347,19.79 14.172,4.54 29.133,13.19 44.375,14.97 1.34,0.44 2.492,0.44 4.543,0.44 9.539,0 22.547,-3.56 22.547,-14.16 0,-15.42 -21.648,-9.63 -24.598,-25.05 -3.203,-15.5 15.958,-32.52 11.59,-56.04 -2.5,-14.53 -27.273,-30.75 -27.273,-42.61 0.449,-18.79 29.141,-14.52 24.773,-40.54 -2.488,-14.26 -22.547,-21.12 -41.785,-27.71 -15.597,-5.09 -32.707,-14.44 -47.324,-14.44 -3.652,0 -6.68,0.27 -9.981,1.51 -11.671,4.82 -8.64,17.02 -12.921,26.38 -3.289,7.67 -15.235,12.93 -19.246,19.52 -15.333,22.37 -27.891,69.77 -9.18,97.4 m 503.575,13.19 c -0.8,15.68 16.66,24.06 32.17,28.6 -7.13,-12.92 -12.66,-28.07 -32.17,-28.6 M 127.961,926.672 c 0,-246.402 109.156,-453.852 324.012,-615.051 140.789,-105.512 284.082,-156.211 320.976,-168.07 37.512,11.859 180.36,62.558 321.331,168.07 215.11,161.199 324.64,368.649 324.64,615.051 V 1874.64 H 127.961 V 926.672" /><path
             id="path24"
             style="fill:#231f20;fill-opacity:1;fill-rule:nonzero;stroke:none"
             d="M 1487.35,927.922 C 1487.35,661.738 1365,429.52 1133.67,257.359 961.055,128.32 790.684,78.3398 783.105,76.3594 l -8.906,-2.8477 -9.629,2.8477 C 757.703,78.3398 586.609,128.32 414.004,257.359 182.402,429.52 60.2344,661.738 60.2344,927.922 V 1944.86 H 1487.35 Z M 0.261719,2018.64 0,931.48 C 0,221.891 773.215,0 773.215,0 c 0,0 773.215,221.891 773.215,931.48 V 2018.64 H 0.261719" /></g></g></g></g></svg>