<?xml version="1.0" encoding="UTF-8" standalone="no"?>
<svg
   xmlns:dc="http://purl.org/dc/elements/1.1/"
   xmlns:cc="http://creativecommons.org/ns#"
   xmlns:rdf="http://www.w3.org/1999/02/22-rdf-syntax-ns#"
   xmlns:svg="http://www.w3.org/2000/svg"
   xmlns="http://www.w3.org/2000/svg"
   viewBox="0 0 612.56 171.8"
   height="171.8"
   width="612.56"
   xml:space="preserve"
   id="svg2"
   version="1.1"><metadata
     id="metadata8"><rdf:RDF><cc:Work
         rdf:about=""><dc:format>image/svg+xml</dc:format><dc:type
           rdf:resource="http://purl.org/dc/dcmitype/StillImage" /></cc:Work></rdf:RDF></metadata><defs
     id="defs6" /><g
     transform="matrix(1.3333333,0,0,-1.3333333,0,171.8)"
     id="g10"><g
       transform="scale(0.1)"
       id="g12"><path
         id="path14"
         style="fill:#231f20;fill-opacity:1;fill-rule:evenodd;stroke:none"
         d="m 3600.61,539.883 c 5.62,0.898 7.71,0.722 9.28,1.543 16.07,8.633 32.03,17.422 48.06,26.133 20.67,11.234 41.31,22.5 62.05,33.593 6,3.203 14.11,4.258 18.17,8.965 14,16.27 26.64,33.731 38.61,49.199 -10.96,-0.761 -30.55,-6.812 -51.39,-23.281 -11.32,-8.965 -29.27,-10.976 -32.89,-28.847 -0.13,-0.641 -1.05,-1.211 -1.71,-1.598 -12.35,-7.367 -24.79,-14.574 -36.98,-22.152 -2.44,-1.504 -3.75,-4.786 -6.07,-6.583 -5.65,-4.312 -11.35,-11.289 -17.44,-11.757 -15.55,-1.231 -20.35,-12.555 -29.69,-25.215 z M 0,58.5 c 17.3984,8.5117 30.7031,16.1094 48.3281,12.2617 9.6055,-2.0898 20.3242,1.2071 30.5625,1.6602 39.6794,1.6992 79.3594,3.3789 119.0584,4.75 14.012,0.4883 28.086,-0.4922 42.071,0.25 11.308,0.6093 22.527,2.8593 33.789,4.2773 2.371,0.2891 4.777,0.2617 7.168,0.332 22.703,0.7969 45.41,1.6993 68.113,2.3477 10.461,0.293 20.93,0.0625 31.387,0.0625 1.203,0 2.753,0.4297 3.546,-0.1406 17.012,-12.3789 32.157,1.7383 48.165,3.2187 12.355,1.1289 24.753,1.8203 37.136,2.5821 14.914,0.9375 29.824,2.0703 44.746,2.457 10.52,0.2695 21.067,-0.5274 31.594,-0.9805 1.414,-0.0469 3.465,-1.6562 4.09,-1.1484 12.598,10.3083 29.25,-1.8906 42.402,7.8906 3.614,2.6997 11.106,1.4492 16.457,0.3281 11.848,-2.5 22.657,-0.7773 34.539,1.7816 15.02,3.218 31.301,0.179 46.953,1.129 15.657,0.961 31.184,4.132 46.836,5.203 18.321,1.289 36.719,1.226 55.079,1.988 11.828,0.488 23.652,1.352 35.468,2.191 21.321,1.52 42.61,3.789 63.946,4.528 25.246,0.883 50.586,-0.528 75.781,0.941 17.355,0.988 34.435,6.11 51.795,7.692 17.1,1.57 34.45,0.429 51.61,1.57 12.88,0.84 25.59,4.098 38.46,5.039 11.72,0.84 23.55,-0.039 35.33,-0.141 3.15,-0.019 6.34,-0.351 9.43,0.039 22.96,2.93 45.88,6.129 68.84,9 19.48,2.422 38.95,5.391 58.51,6.473 23.21,1.289 46.53,0.328 69.77,1.316 8.37,0.364 16.63,3.602 24.96,5.411 2.68,0.57 5.55,1.57 8.12,1.121 30.46,-5.328 59.78,6.379 90.17,6.379 14.8,-0.008 30.53,-0.969 45.66,1.121 9.62,1.351 19.13,3.832 28.78,4.492 19.48,1.308 39,1.738 58.49,2.539 3.19,0.121 6.51,-0.289 9.53,0.469 10.58,2.711 20.06,5.699 32.23,3.218 11.99,-2.437 25.6,3.973 38.62,5.493 13.4,1.558 26.96,1.578 40.39,2.89 21.94,2.11 43.85,6.5 65.75,6.391 11.94,-0.082 24.71,6.578 36.43,-1.492 0.52,-0.371 1.74,-0.289 2.33,0.082 19.85,12.457 41.97,6.226 63.17,8.027 35.23,2.992 70.31,7.543 105.51,10.742 24.82,2.25 49.76,3.098 74.6,5.059 13.53,1.07 26.97,4.14 40.48,4.43 15.32,0.351 31.42,-11.008 45.68,4.652 1.92,2.09 9.01,-0.57 13.71,-0.981 3.93,-0.351 8.5,-2.113 11.7,-0.722 14.98,6.5 30.04,3.543 45.35,2.543 7.46,-0.473 15.1,4.039 22.77,4.527 14.91,0.981 29.89,0.512 44.83,1.02 6.91,0.211 14.51,-0.321 20.57,2.339 19.16,8.364 38.35,6.93 57.91,2.911 1.42,-0.27 3.16,-1.289 4.21,-0.797 23.07,10.488 47.29,8.199 71.55,7.25 7.99,-0.321 16.11,2.09 24.18,3.359 14.08,2.18 27.73,5.188 42.52,2.18 9.29,-1.871 19.68,1.551 29.59,2.621 0.78,0.078 1.54,0.449 2.32,0.469 27.97,1.031 55.98,1.48 83.91,3.3 13.47,0.879 26.73,4.84 40.21,6.457 6.06,0.731 12.7,-2.418 18.52,-1.187 27.75,5.918 55.9,8.34 84.1,8.988 10.47,0.25 21,-4.078 31.58,-5.84 2.97,-0.488 7.68,-0.3 9.08,1.52 6.51,8.383 27.85,11.23 33.77,5.98 9.5,1.871 17.15,3.493 24.85,4.86 7.71,1.351 15.43,3.133 23.2,3.461 8.89,0.371 17.83,-1.059 26.74,-0.942 5.82,0.082 11.6,1.891 17.44,2.231 18.96,1.09 37.95,1.519 56.87,2.871 12.05,0.859 23.99,3.73 36.04,4.14 11.09,0.391 22.26,-1.289 33.42,-1.992 2.38,-0.136 6.07,-0.957 6.99,0.211 9.43,12.094 20.86,2.699 31.29,3.539 8.96,0.703 17.77,3.84 26.76,4.371 12.71,0.743 25.52,-0.371 38.28,0.141 7.5,0.289 14.98,2.105 22.44,3.355 4.53,0.743 8.98,2.231 13.51,2.54 27.35,1.875 54.83,2.5 81.96,5.902 7.11,0.875 13.2,10.078 19.72,15.484 4.93,4.082 9.79,8.223 14.71,12.309 14.4,11.914 29.71,22.871 42.95,35.957 16.93,16.715 31.76,35.562 48.44,52.555 5.45,5.57 13.83,8.281 20.9,12.246 3.38,1.875 7.05,3.324 10.21,5.492 10.61,7.301 13.87,17.672 10.25,31.598 -4.64,17.929 0.02,26.328 17.09,32.523 13.44,4.859 25.2,14.195 41,12.769 3.42,-0.308 7.74,6.133 11.15,9.903 2.97,3.262 5.18,7.187 7.84,10.722 6.21,8.188 13.08,14.399 23.73,17.872 6.79,2.207 11.32,11.347 16.83,17.402 2.33,2.559 4.61,7.5 6.84,7.441 12.38,-0.215 10.11,8.559 10.52,16.391 9.85,1.891 19.24,4.293 20.04,17.207 0.16,2.535 4.3,4.961 6.82,7.207 5.72,5.094 11.58,10.035 17.36,15.074 1.51,1.309 2.93,4.004 4.3,3.946 14.3,-0.586 17.19,15.214 28.15,19.296 0.89,0.332 1.93,1.797 1.95,2.774 0.62,22.129 16.95,29.203 33.61,37.226 3.97,1.899 4.47,11.036 6.56,16.856 -1.54,1.172 -3.08,2.344 -4.62,3.515 -6.2,-5.136 -15.24,-9.058 -18.01,-15.64 -5.84,-13.832 -17.58,-17.793 -29.28,-20.707 -13.38,-3.32 -19.36,-14.238 -28.4,-22.07 -3.83,-3.301 -8.4,-8.028 -12.67,-8.086 -12.48,-0.118 -16.35,-12.383 -26.1,-16.231 -14.96,-5.918 -26.23,-19.156 -43.77,-20.953 -5.17,-0.531 -9.22,-8.871 -14.51,-12.539 -7.69,-5.293 -16.21,-8.031 -27.5,-0.277 8.4,4.921 16.09,9.281 23.63,13.906 17.91,11 35.71,22.168 53.62,33.164 3.22,1.973 6.89,3.183 10.07,5.176 5.36,3.379 10.16,7.754 15.79,10.492 6.19,2.984 13.12,4.43 19.59,6.891 2.75,1.054 7.52,3.339 7.34,4.472 -1.7,11.719 8.18,13.715 14.71,18.418 7.22,5.195 14.43,10.449 21.95,15.176 9.18,5.762 18.67,11 28.01,16.465 2.3,1.371 4.8,2.519 6.85,4.179 16.04,12.989 33.52,24.61 47.56,39.493 14.81,15.703 36.15,23.847 47.64,43.144 2.11,3.574 8.05,4.668 11.6,7.656 21.88,18.321 43.55,36.856 65.31,55.313 10.53,8.945 21.33,17.582 31.57,26.816 13.51,12.227 26.46,25.059 39.92,37.364 15.25,13.964 30.7,27.738 46.25,41.367 2.28,1.996 5.54,3.887 8.41,3.984 6.55,0.219 13.13,-0.699 19.71,-1.152 -2.13,-7.188 -2.21,-16.445 -6.87,-21.055 -6.51,-6.387 -16.51,-9.18 -24.89,-13.73 -2.69,-1.485 -6.36,-3.18 -7.28,-5.645 -6.7,-18.16 -21.7,-27.402 -37.01,-36.988 -6.82,-4.262 -11.94,-11.293 -17.62,-17.25 -11.21,-11.715 -22.29,-23.555 -33.42,-35.352 -1.93,-2.027 -3.53,-4.59 -5.84,-5.976 -23.57,-14.199 -41.54,-35.215 -63.14,-51.817 -7.52,-5.777 -12.87,-14.355 -19.49,-21.367 -6.22,-6.578 -12.07,-13.887 -19.42,-18.906 -14.04,-9.586 -22.99,-23.828 -34.57,-34.902 -10.78,-10.333 -21.87,-21.504 -33.75,-31.266 -9.84,-8.109 -18.98,-17.484 -26.74,-27.582 -5.19,-6.777 -11.97,-8.399 -18.38,-12.188 -12.24,-7.187 -22.11,-18.593 -32.46,-28.769 -7.03,-6.875 -13.32,-14.531 -19.65,-22.047 -1.32,-1.582 -1.44,-4.164 -2.26,-6.684 13.48,-4.179 18.59,7.911 26.72,12.793 8.26,4.961 14.37,13.36 22.4,18.828 22.32,15.176 44.2,31.465 68.07,43.813 26.03,13.492 51.46,29.723 81.6,33.379 4.9,0.582 10.13,-1.504 15.21,-2.348 -1.42,-5.625 -1.03,-13.086 -4.57,-16.562 -21.23,-20.86 -41.89,-42.774 -65.64,-60.426 -19.59,-14.555 -38.48,-30.625 -63.44,-38.441 -19.2,-6.016 -39.16,-14.747 -53.4,-31.211 -0.94,-1.094 -2.69,-1.875 -4.16,-2.051 -13.69,-1.524 -17.54,-10.039 -14.33,-26.856 -6.66,4.59 -10,6.875 -13.81,9.516 -10.51,-2.133 -22.74,-3.344 -34.01,-7.27 -10.04,-3.496 -19.57,-9.257 -28.35,-15.41 -9.89,-6.914 -19.75,-14.414 -27.68,-23.379 -9.59,-10.855 -6.95,-17.851 5.9,-25.586 13.36,-8.023 26.91,-10.664 42.52,-7.144 9.2,2.086 19.49,-0.918 28.82,0.777 16.02,2.934 31.66,7.832 47.52,11.723 5.14,1.266 10.43,1.949 15.65,2.887 0.58,-1.192 1.15,-2.403 1.72,-3.614 -2.89,-2.129 -5.55,-5.523 -8.71,-6.132 -10.14,-1.891 -18.97,-4.375 -26.64,-12.715 -4.18,-4.551 -13.23,-5.094 -20.28,-6.407 -11.91,-2.168 -23.96,-3.554 -35.97,-5.175 -3.15,-0.426 -6.72,0.312 -9.44,-0.938 -26.66,-12.242 -52.32,-7.383 -77.3,4.668 -9.77,4.707 -15.9,3.906 -22.93,-5.328 -6.31,-8.324 -12.39,-17.797 -24.2,-21.117 -4.86,-1.367 -9.16,-7.047 -12.35,-11.715 -10.07,-14.848 -24.94,-24.32 -38.2,-35.664 -15,-12.832 -29.84,-25.879 -43.92,-39.707 -3.32,-3.266 -4.46,-10.082 -4.09,-15.082 0.14,-1.856 7.52,-4.707 11.49,-4.512 23.32,1.094 46.56,3.164 69.86,4.375 4.9,0.258 9.94,-1.656 14.88,-2.676 2.25,-0.449 5.24,-2.359 6.55,-1.523 18.42,11.777 38.36,2.148 57.4,4.336 10.68,1.25 21.41,2.539 32.15,2.953 24.35,0.934 48.71,1.598 73.08,1.773 9.85,0.079 19.89,-2.91 29.54,-1.894 24.6,2.621 48.98,7.168 73.57,10.043 13.07,1.519 26.35,1.168 39.53,1.66 20.37,0.758 40.76,1.285 61.13,2.32 28.07,1.407 56.16,3.086 84.22,4.825 7.44,0.468 14.85,1.527 22.27,2.363 20.7,2.383 41.38,4.98 62.11,7.109 11.81,1.211 23.67,2.133 35.52,2.168 3.25,0.02 6.51,-3.633 9.77,-5.586 -3.44,-3.633 -6.8,-10.195 -10.37,-10.312 -9.51,-0.293 -17.62,-2.129 -25.16,-8.106 -2.4,-1.914 -6.64,-1.504 -10.06,-2.051 -24.33,-4.019 -48.65,-7.988 -72.96,-11.992 -9.65,-1.582 -19.24,-3.496 -28.93,-4.765 -14.04,-1.797 -28.13,-3.594 -42.25,-4.508 -6.56,-0.414 -13.26,2.027 -19.88,1.875 -12.25,-0.278 -24.78,-0.102 -36.64,-2.699 -14.82,-3.243 -29.26,-2.582 -44.18,-2.75 -24.9,-0.27 -49.69,-6.512 -74.67,-8.731 -20.1,-1.82 -40.41,-1.289 -60.6,-2.109 -4.08,-0.18 -9.3,-0.512 -11.88,-2.949 -6.56,-6.231 -11.85,-7.582 -19,-0.942 -1.95,1.82 -7.74,1.942 -10.18,0.371 -7.01,-4.531 -13.22,-10.293 -20.48,-16.172 -3.62,4.102 -7.17,8.629 -11.24,12.641 -6.85,6.699 -12.93,5.68 -17.51,-2.52 -4.32,-7.761 -18.64,-11.992 -24.19,-5.351 -13.73,16.461 -29.94,6.269 -45.19,6.211 -4.32,-0.02 -8.61,-1.02 -12.95,-1.289 -14.24,-0.903 -31.8,3.219 -41.99,-3.629 -15.41,-10.371 -26.51,-3.852 -40.67,-2.152 -11.58,1.402 -24.23,-6.059 -36.38,-9.77 -2.13,-0.641 -4.83,-3.648 -5.86,-3.078 -16.27,9.137 -31.98,-2.953 -48.24,-1 -15.45,1.879 -31.53,1.988 -46.94,-0.082 -18.65,-2.52 -37.97,2.051 -56.19,-6.66 -8.81,-4.219 -19.24,-5.391 -29.06,-7.051 -13.52,-2.258 -27.37,-2.789 -40.67,-5.82 -6.48,-1.457 -12.09,-6.868 -18.94,-11.008 -16.74,13.469 -35.02,7.277 -53.36,1.75 -3.32,-0.992 -6.91,-1.071 -10.35,-1.742 -3.67,-0.719 -7.44,-1.297 -10.92,-2.61 -2.07,-0.801 -3.59,-4.07 -5.49,-4.199 -13.73,-0.879 -27.65,-2.852 -41.19,-1.391 -19.22,2.051 -37.58,5.7 -55.45,-6.558 -4.61,-3.172 -13.85,0.328 -20.96,0.918 -5.43,0.472 -11.15,2.562 -16.21,1.441 -9.22,-2.031 -18.02,-5.949 -27.05,-8.941 -1.44,-0.469 -3.3,-0.649 -4.72,-0.199 -17.91,5.671 -33.79,1.558 -49.18,-8.551 -3.73,-2.457 -11.23,-3.149 -14.93,-1.02 -15.66,9.02 -30.07,5.102 -45.76,-0.039 -12.09,-3.961 -24.57,-8.691 -38.55,-1.422 -5.8,3 -15.67,-1.816 -23.67,-3.027 -12.56,-1.883 -24.3,-7.289 -38.03,-3.629 -6.8,1.809 -15.9,-2.152 -23.05,-5.453 -6.03,-2.801 -11.15,-5.508 -18.07,-3.481 -9.66,2.813 -19.53,6.563 -29.37,6.762 -7.77,0.149 -16.56,-3.031 -23.2,-7.351 -7.72,-5.008 -14.42,-5.309 -22.13,-1.989 -7.03,3.032 -12.91,2.192 -19.71,-2.191 -5.59,-3.59 -13.16,-5.367 -19.92,-5.52 -14.16,-0.347 -28.36,0.903 -42.54,1.5 -1.02,0.039 -2.25,0.493 -3.01,0.063 -13.71,-7.461 -27.95,-4.41 -42.56,-3.961 -10.39,0.328 -20.99,-6.313 -31.52,-9.832 -1.93,-0.641 -4.04,-2.051 -5.8,-1.719 -16.31,3.262 -32.34,5.649 -48.48,-1.719 -3.88,-1.769 -9.41,0.137 -14.18,0.137 -8.88,0 -17.79,0.231 -26.64,-0.348 -9.8,-0.652 -19.53,-2.269 -29.31,-3.109 -1.86,-0.152 -3.89,1.348 -5.75,2.27 -1.71,0.859 -3.96,3.257 -4.86,2.789 -14.65,-7.539 -34.91,0 -45.95,-16.481 -3.85,-5.738 -6.95,-5.84 -12.34,-2.558 -15.19,9.257 -37.53,5.699 -52.62,-5.219 -4.9,-3.531 -14.4,-2.91 -21.07,-1.274 -10.44,2.602 -19.95,3.582 -30.49,0.063 -5.63,-1.891 -12.54,-0.02 -18.88,0.32 -1.11,0.028 -2.25,1.34 -3.25,1.207 -16.63,-2.226 -33.23,-4.59 -49.83,-6.918 -3.3,-0.449 -7.77,-2.398 -9.72,-0.968 -8.87,6.519 -14.35,0.027 -20.82,-4.012 -2.52,-1.578 -5.75,-2.852 -8.67,-2.871 -12.78,-0.16 -25.57,0.511 -38.36,0.242 -9.88,-0.199 -19.89,-0.609 -29.56,-2.41 -4.66,-0.879 -8.68,-5.1916 -12.22,-7.4612 -13.09,2.5821 -26.28,5.3322 -39.55,7.6212 -1.88,0.309 -4.07,-2.031 -6.26,-2.602 -6.35,-1.5973 -13.84,-5.7809 -18.96,-3.8473 -15.54,5.8593 -27.89,0.9766 -40.57,-6.9336 -2.48,-1.539 -6.61,-0.4297 -9.98,-0.5898 -17.84,-0.8672 -35.68,-1.6367 -53.5,-2.7071 -4.23,-0.25 -8.41,-1.5 -12.58,-2.4414 -2.65,-0.6093 -6.12,-2.9882 -7.71,-2.0312 -13.44,8.1016 -27.17,0.9726 -37.44,-3.7266 -12.85,-5.9023 -22.17,-2.0039 -33.14,0.7188 -1.86,0.4492 -4.35,-1.0899 -6.39,-2.0703 -11.95,-5.6719 -23.44,-9.1407 -37.76,-8.3008 -12.26,0.6992 -24.23,4.7187 -36.54,3.4687 -9.89,-0.9882 -19.77,-2.1367 -29.58,-3.6484 -17.04,-2.5781 -33.97,-5.8984 -51.05,-8.0586 -7.13,-0.9023 -14.48,-7.4726 -21.83,-0.3828 -0.22,0.2226 -0.97,0.2422 -1.16,0.043 -13.73,-14.1211 -32,4.5703 -48.24,-7.6133 -8.06,-6.0586 -25.17,0.4531 -38.19,0.3125 -6.06,-0.0625 -12.1,-2.3594 -18.12,-3.7696 -2.17,-0.5117 -5.29,-2.7031 -6.2,-1.9492 -10.2,8.4063 -21.78,2.1094 -32.59,3.1797 -2.75,0.2891 -6.43,-2.0508 -8.66,-4.2422 -11.61,-11.3906 -20,-11.6406 -32.45,-0.4492 -5.25,4.7305 -24.51,3.7695 -33.64,-2.3008 -8.37,-5.5703 -16.35,-5.1797 -25.3,-1.4297 -3.49,1.4688 -8.29,0.6094 -12.29,-0.1679 -7.12,-1.4336 -14.04,-3.8125 -21.13,-5.3907 -7.94,-1.8007 -16.01,-3.0117 -23.96,-4.7695 -5.62,-1.25 -9.88,-2.5234 -16.24,1.4492 -4.79,2.9805 -14.61,0.1289 -21.21,-2.5195 -7.01,-2.8633 -12.76,-5.0625 -19.97,-0.8203 -2.12,1.25 -6.11,-0.7695 -9.27,-1.1406 -5.27,-0.6211 -11.14,-2.8907 -15.74,-1.3594 -13.8,4.5508 -27.188,4.2695 -40.832,0.3086 -0.75,-0.2383 -1.609,-0.8399 -2.246,-0.6485 -22.762,6.7383 -42.481,-11.9101 -65.008,-7.8515 -2.648,0.4687 -5.781,-2.0508 -8.742,-3.0313 -5.281,-1.75 -9.578,-3.8593 -16.082,-0.0664 -4.641,2.7071 -12.805,-0.8008 -19.414,-1.25 -4.016,-0.2617 -8.067,0.0391 -12.102,0.1094 -6.972,0.1367 -13.945,0.2969 -20.918,0.4688 -3.515,0.1015 -7.801,-0.9493 -10.379,0.6718 -7.207,4.5469 -13.039,-0.7109 -19.093,-0.9023 -14.735,-0.4883 -27.481,-4.1211 -39.942,-11.28908 -1.355,-0.78124 -5.371,2.53907 -7.851,4.34766 -3.778,2.80082 -7.293,5.92192 -12.637,10.32032 -2.969,-3.8086 -5.242,-7.7969 -8.555,-10.54688 -1.883,-1.5625 -5.996,-2.27344 -8.183,-1.29297 -6.59,2.95313 -12.403,8.15235 -19.188,10.01955 -4.121,1.1523 -12.031,-0.7188 -13.808,-3.7891 C 693.164,5.37109 689.012,9.21875 683.66,10.0781 676.629,11.2109 668.387,12.5 662.266,9.92188 650.906,5.16016 640.312,6.35156 629.297,9.03125 608.293,14.1406 588.633,9.64844 569.211,1.55859 565.332,-0.0585938 558.586,-0.839844 556.074,1.35156 540.762,14.6484 522.949,10.6719 505.898,9.16016 494.754,8.17188 483.895,3.94922 472.879,1.30859 471.562,1 469.559,1.12109 468.641,1.89844 454.129,14.4414 438.555,8.80859 422.676,5.57031 416.418,4.30078 409.434,7.05078 402.762,7.12891 395.793,7.23047 386.434,8.92969 382.344,5.23828 375.449,-0.96875 368.25,0.980469 364.402,4.03125 c -8.738,6.91015 -16.972,2.11719 -25.496,2.57031 -14.629,0.79688 -29.172,3.37891 -43.703,5.54684 -8.73,1.3125 -17.312,3.5899 -26.062,4.75 -5.188,0.7032 -10.645,-0.6093 -15.801,0.1719 -19.68,2.9688 -39.258,8.7695 -58.906,8.8516 -12.786,0.0781 -24.661,-0.9024 -36.055,5.5898 -0.918,0.5195 -2.52,0.4766 -3.535,0.0664 -12.278,-4.9375 -23.653,-0.0469 -35.571,2.2305 C 102.996,36.9414 86.2266,37.3789 69.8281,40 56.8164,42.0703 44.0586,45.7188 31.168,48.6211 23.9727,50.2383 16.7148,51.5508 9.57031,53.3398 7.21094,53.9492 5.14062,55.6719 0,58.5" /><path
         id="path16"
         style="fill:#231f20;fill-opacity:1;fill-rule:evenodd;stroke:none"
         d="m 1780.32,460.117 c 11.49,11.973 31.38,11.621 40.82,27.363 1.58,2.637 4.51,4.473 6.81,6.68 18.9,18.184 38.26,35.938 56.51,54.766 8.37,8.633 14.84,19.203 21.55,29.277 1.44,2.172 1.38,6.992 -0.12,8.926 -1.33,1.699 -5.74,1.738 -8.63,1.332 -12.3,-1.762 -20.01,-9.594 -28.21,-18.695 -23.37,-25.957 -48.29,-50.528 -72.6,-75.625 -0.54,-0.586 -1.3,-1.075 -1.62,-1.758 -4.87,-10.742 -9.68,-21.504 -14.51,-32.266 z m -209.94,28.086 c 0,5.742 0.01,8.535 0,11.328 -0.03,15.938 -18.43,31.098 -33.55,25.996 -9.4,-3.144 -19.51,-8.144 -25.97,-15.332 -12.22,-13.57 -20.49,-30.816 -33.19,-43.808 -25.81,-26.407 -45.15,-56.969 -63.06,-88.75 -1.25,-2.188 -1.73,-6.328 -0.49,-8.145 5.29,-7.754 10.56,-15.84 17.31,-22.226 17.11,-16.153 37.3,-13.887 50.57,4.492 1.73,2.402 5.19,3.457 7.36,5.605 10.74,10.586 22.89,20.196 31.54,32.285 10.91,15.293 17.64,33.555 28.5,48.852 11.49,16.172 25.32,30.523 20.98,49.703 z m -196,209.219 c 1.09,-1.387 2.18,-2.774 3.28,-4.18 27.51,4.981 51.72,19.043 76.78,30.43 16.12,7.344 31.13,17.09 46.64,25.723 18.85,10.507 37.87,20.761 56.53,31.582 12.6,7.304 27.57,11.464 35.61,25.316 0.47,0.816 2.03,1.187 3.17,1.402 13.32,2.383 21.77,11.758 30.58,20.84 15.13,15.59 37.59,23.051 48.38,43.535 0.48,0.918 2.16,1.114 2.87,1.977 4.78,5.797 9.61,11.558 14.09,17.594 8.94,12.011 -2.93,13.242 -9.17,17.382 -0.63,0.43 -1.26,1.094 -1.56,1.778 -5.11,12.289 -15.87,13.789 -26.99,13.539 -12.24,-0.278 -24.61,-0.586 -36.62,-2.66 -6.93,-1.211 -13.36,-5.742 -19.82,-9.16 -4.46,-2.364 -8.28,-6.211 -12.93,-7.911 -24.08,-8.789 -42.43,-25.839 -61.12,-42.226 -15.11,-13.242 -29.41,-27.403 -43.82,-41.422 -2.65,-2.602 -3.94,-6.527 -6.11,-9.668 -1.67,-2.406 -3.31,-5.199 -5.67,-6.703 -17.21,-10.957 -31.08,-24.688 -39.84,-43.516 -2.77,-5.957 -7.89,-10.82 -11.87,-16.211 -4.24,-5.738 -7.91,-12.011 -12.73,-17.226 -9.57,-10.371 -19.75,-20.172 -29.68,-30.215 z M 840.691,529.59 c -9.871,-2.012 -18.886,-3.887 -27.918,-5.664 -13.41,-2.633 -26.796,-6.797 -40.285,-7.207 -9.433,-0.274 -17.597,-1.504 -25.445,-6.328 -0.981,-0.586 -2.207,-0.801 -3.352,-1.051 -36.914,-8.047 -73.808,-16.274 -110.793,-23.988 -7.675,-1.598 -16.043,-0.235 -23.535,-2.286 -21.328,-5.839 -42.156,-13.613 -63.582,-19.043 -34.707,-8.789 -69.953,-15.523 -104.57,-24.668 -27.293,-7.183 -54.219,-16.015 -80.84,-25.429 -15.234,-5.391 -29.394,-13.711 -44.285,-20.133 -12.016,-5.199 -24.895,-8.539 -36.527,-14.414 -25.684,-13.012 -51.649,-25.805 -75.938,-41.156 -19.891,-12.594 -37.91,-28.321 -55.965,-43.594 -8.808,-7.457 -15.246,-17.668 -23.781,-25.527 -12.738,-11.723 -27.293,-21.723 -30.6953,-40.481 -0.3906,-2.152 -2.5274,-3.93 -3.4922,-6.062 -5.3633,-11.661 -12.0313,-22.969 -15.625,-35.18 -8.8047,-29.84 -2.6992,-41.207 22.9102,-57.688 23.0313,-14.82 49.4333,-13.132 74.3363,-18.671 7.968,-1.782 16.425,-2.5 24.578,-2.09 16.074,0.84 32.082,3.121 48.156,4.199 10,0.66 20.379,-1.309 30.078,0.562 23.68,4.59 46.902,11.61 70.606,16.02 25.976,4.82 49.636,15.488 73.671,25.508 15.008,6.269 30.36,11.742 45.243,18.281 9.863,4.328 19.425,9.512 28.671,15.059 9.7,5.781 18.938,12.363 28.254,18.773 18.602,12.809 37.274,25.539 55.645,38.668 13.523,9.691 28.699,16.441 40.066,30.02 8.266,9.878 22.539,14.761 29.133,27.222 2.461,4.668 2.625,10.844 5.762,14.805 7.363,9.394 15.566,18.207 24.07,26.582 4.61,4.551 11.301,7.051 15.723,11.738 11.223,11.875 21.594,24.555 32.5,36.723 7.785,8.687 15.976,17.008 23.84,25.64 16.375,17.969 32.507,36.153 49.023,54.004 8.906,9.629 18.699,18.457 27.461,28.204 6.055,6.738 11.121,14.374 16.414,21.757 0.762,1.075 0.266,3.047 0.488,6.895 z M 1807.15,384.258 c -15.24,-3.668 -30.29,-1.817 -42.51,7.09 -9.2,6.699 -16.45,16.504 -23.28,25.863 -3.9,5.332 -5.64,6.422 -11.98,3.062 -28.62,-15.156 -57.52,-29.804 -86.71,-43.769 -13.61,-6.5 -27.84,-12.246 -42.37,-16.129 -10.13,-2.719 -21.38,-2.895 -31.94,-2.035 -12.73,1.039 -25.22,4.828 -37.94,6.348 -3.32,0.39 -7.43,-2.77 -10.63,-5.079 -14.28,-10.214 -27.43,-22.48 -42.75,-30.703 -20.69,-11.109 -51.47,-2.011 -66.05,16.797 -10.71,13.789 -29.7,15.762 -43.69,5.137 -4.88,-3.711 -10.57,-6.738 -16.34,-8.848 -25.51,-9.258 -50.63,-20.82 -76.98,-26.172 -21.2,-4.316 -44,-1.758 -66,-0.508 -8.13,0.469 -16.27,5.293 -23.9,9.141 -17.92,9.024 -37.82,17.031 -42.31,39.492 -2.11,10.567 -1.81,22.602 1.12,32.91 4.74,16.739 12.12,32.774 19.15,48.75 5.08,11.543 11.6,22.422 17.05,33.79 1.95,4.105 1.6,9.55 4.13,13.046 5.59,7.735 12.42,14.571 18.58,21.914 1.97,2.364 5.21,5.528 4.79,7.715 -3.23,16.797 10.51,26.309 16.5,38.965 3.6,7.598 11.24,13.164 15.98,20.352 11.3,17.148 21.96,34.707 34.12,54.062 -9.02,0 -17.14,1.739 -24.12,-0.332 -20.04,-5.957 -40,-12.539 -59.27,-20.605 -15.21,-6.367 -30.51,-9.176 -46.8,-9.61 -4.43,-0.117 -8.48,-5.371 -13.14,-6.66 -16.15,-4.449 -32.54,-8.027 -48.76,-12.265 -7.77,-2.032 -15.23,-5.469 -23.08,-7.032 -18.4,-3.648 -37.13,-5.722 -55.38,-9.961 -25.21,-5.855 -50.12,-12.984 -75.054,-19.98 -2.949,-0.82 -5.313,-4.141 -7.684,-6.563 -10.586,-10.781 -21.425,-21.328 -31.523,-32.558 -20.949,-23.281 -40.969,-47.418 -62.422,-70.195 -9.855,-10.469 -22.578,-18.141 -33.32,-27.848 -14.582,-13.168 -28.528,-27.055 -42.696,-40.668 -7.199,-6.914 -13.808,-14.531 -21.535,-20.797 -23.465,-19.008 -51.543,-34.027 -68.476,-58.715 -10.086,-14.699 -25.321,-17.832 -35.977,-28.832 -3.672,-3.797 -7.527,-7.648 -11.961,-10.406 -16.222,-10.09 -32.844,-19.57 -49.031,-29.703 -3.285,-2.047 -5.207,-6.16 -8.051,-9.028 -2.137,-2.16 -4.5,-5.062 -7.176,-5.601 -16.222,-3.32 -28.234,-13.192 -40.605,-23.34 -5.938,-4.871 -15.098,-5.57 -22.16,-9.359 -15.758,-8.422 -31.114,-17.61 -46.66,-26.422 -1.641,-0.918 -3.575,-2.09 -5.301,-1.981 -23.723,1.594 -45.196,-8.648 -64.856,-18.199 -19.824,-9.629 -40.859,-12.027 -60.957,-18.551 -14.656,-4.769 -31.757,-1.918 -47.773,-2.597 -2.195,-0.102 -4.422,-0.86 -6.543,-1.582 -7.207,-2.43 -14.293,-6.4692 -21.914,-1.118 -0.606,0.43 -1.602,1 -2.129,0.778 -19.188,-7.8909 -39.188,-2.828 -58.25,-1.321 -28.066,2.223 -56.813,5.332 -82.0313,20.434 -23.1211,13.816 -30.207,35.188 -27.5742,60.699 0.2851,2.75 3.1953,5.141 4.375,7.91 3.414,8.008 6.7148,16.09 9.7265,24.258 0.7969,2.153 -0.5273,5.449 0.6797,7.012 7.6602,9.961 15.7071,19.629 23.7344,29.301 8.1839,9.84 16.2809,19.797 24.8009,29.347 13.242,14.883 27.148,28.559 44.629,39.219 24.258,14.805 46.179,33.399 70.117,48.809 11.902,7.675 26.055,11.836 39.168,17.617 21.711,9.59 43,20.234 65.176,28.516 32.043,11.992 64.465,23.148 97.207,33.007 21.992,6.645 44.875,10.274 67.277,15.606 19.219,4.59 38.215,10.097 57.481,14.414 23.183,5.215 46.64,9.238 69.832,14.457 26.574,5.957 52.871,13.125 79.484,18.883 28.562,6.191 56.641,14.551 86.004,17.265 16.484,1.524 32.695,6.059 48.965,9.493 2.109,0.429 4.386,2.031 5.742,3.75 7.57,9.609 14.836,19.472 22.324,29.14 1.699,2.188 3.516,4.926 5.891,5.86 10.652,4.218 12.215,15.277 18.144,23.007 4.16,5.434 9.266,10.215 12.957,15.938 3.266,5.058 4.582,11.371 7.754,16.504 4.914,7.953 10.598,15.453 16.153,22.992 1.3,1.773 4.484,2.73 4.902,4.527 5.617,23.711 17.988,43.535 33.75,61.762 3.652,4.195 5.031,10.387 7.93,16.715 -4.188,0.746 -7.832,1.371 -15.282,2.676 11.981,8.457 21.836,15.429 34.138,24.121 -5.38,1.621 -7.899,3.261 -10.056,2.89 -19.57,-3.476 -35.05,-15.742 -52.257,-24.394 -12.743,-6.406 -26.122,-12.813 -39.95,-15.567 -18.156,-3.593 -49.972,17.793 -49.093,49.145 0.714,25.504 10.285,48.379 18.574,71.93 6.797,19.297 9.609,39.961 15.344,59.687 3.914,13.457 4.453,25.488 -4.891,36.953 -5.395,6.641 -28.02,12.403 -35.754,9.262 -5.332,-2.168 -11.172,-3.637 -16.895,-4.145 -18.996,-1.64 -36.75,-5.742 -52.726,-17.304 -12.324,-8.922 -26.191,-15.703 -39.238,-23.672 -1.914,-1.152 -2.879,-3.75 -4.598,-5.352 -2.512,-2.343 -5.059,-5.8 -8.02,-6.308 -16.132,-2.774 -25.632,-14.453 -34.433,-26.09 -7.285,-9.629 -13.652,-18.949 -25.867,-23.324 -4.59,-1.637 -7.578,-7.926 -11.125,-12.223 -1.219,-1.508 -1.563,-4.477 -2.95,-4.965 -14.734,-5.234 -17.625,-20.113 -25.976,-30.586 -11.727,-14.726 -16.699,-31.133 -15.926,-49.043 1.074,-24.527 14.297,-42.109 35.293,-54.219 8.152,-4.683 15.566,-11.812 24.297,-14.14 32.637,-8.668 65.957,-13.906 99.59,-6.445 32.695,7.246 65.176,15.546 97.586,24.003 9.367,2.442 18.176,7.051 27.226,10.665 0.754,-1.719 1.496,-3.418 2.239,-5.137 -9.582,-4.121 -18.879,-9.215 -28.801,-12.207 -25.008,-7.559 -50,-15.781 -75.567,-20.797 -33.738,-6.645 -67.566,-10.356 -102.39,-2.309 -25.09,5.782 -47.571,14.922 -67.246,30.84 -13.282,10.742 -20.657,25.449 -23.567,42.324 -6.113,35.528 11.641,61.27 34.797,84.746 12.86,13.028 26.121,25.704 38.895,38.829 36.781,37.816 81.367,64.199 128.988,85.058 21.91,9.61 45.367,17.246 70.789,14.61 18.133,-1.891 51.102,-22.344 54.844,-38.243 2.312,-9.843 3.262,-20.742 1.582,-30.605 -3.313,-19.434 -8.879,-38.457 -13.516,-57.656 -5.234,-21.739 -18.586,-41.305 -18.605,-64.278 -0.02,-9.605 1.035,-21.504 6.593,-28.242 7.071,-8.555 19.122,-8.672 30.125,-2.324 16.77,9.668 33.235,20.644 51.25,27.09 13.821,4.961 26.945,15.531 44.245,9.629 12.33,-4.2 22.37,4.179 31.63,11.914 5.39,4.511 11.09,8.73 17.08,12.406 18.93,11.617 37.49,22.926 52.11,40.855 12.06,14.77 28.6,25.86 44.97,37.989 -2.27,-4.84 -3.4,-10.86 -7,-14.317 -16.76,-16.211 -33.13,-33.164 -51.72,-47.09 -20.84,-15.625 -44.17,-27.929 -65.84,-42.539 -5.39,-3.632 -11.02,-10.117 -12.2,-16.148 -4.03,-20.551 -13.18,-38.715 -22.61,-56.953 -2.11,-4.067 -2.78,-8.852 -4.6,-13.086 -1.81,-4.242 -4.19,-8.246 -6.37,-12.309 -4.234,-7.945 -8.581,-15.84 -12.741,-23.828 -5.399,-10.406 -10.77,-20.82 -15.926,-31.347 -1.485,-3.028 -2.649,-6.368 -3.184,-9.708 -1.582,-9.765 -4.98,-18.124 -14.726,-22.515 -8.282,-3.75 -16.016,-17.016 -13.77,-25.531 0.672,-2.516 6.074,-5.973 8.613,-5.469 20.293,3.965 40.391,8.945 60.604,13.32 22.84,4.942 45.96,8.809 68.58,14.594 20.71,5.309 40.89,12.672 61.38,18.902 4.43,1.328 9.14,2.016 13.77,2.309 11.91,0.758 15.68,5.758 14.97,17.5 -0.64,10.738 -0.09,21.598 0.72,32.34 0.73,9.785 2.36,19.511 3.83,29.218 2.2,14.438 17,24.106 30.72,19.043 7,-2.578 8.09,-8.98 5.36,-16.347 -7.04,-18.961 -13.56,-38.106 -20.26,-57.207 -3.23,-9.215 -2.06,-13.985 9.43,-10.196 33.16,10.899 67.44,17.11 98.97,34.649 20.67,11.504 26.49,31.816 41.04,46.332 14.09,14.058 26.13,30.308 40.93,43.512 14.32,12.793 26.14,27.406 38.09,42.113 2.88,3.551 6.23,6.875 9.88,9.605 19.77,14.786 34.7,34.532 54.87,49.532 24.68,18.379 49.98,35.097 76.56,50.293 24.76,14.14 51.3,24.066 79.22,28.164 23.45,3.457 46.18,-0.02 63.83,-19.864 7.73,-8.687 7.85,-16.269 3.87,-25.761 -10.2,-24.395 -30.79,-38.828 -50.92,-53.868 -9.51,-7.105 -18.31,-15.156 -27.46,-22.769 -2.71,-2.27 -5.36,-4.652 -8.27,-6.645 -15.79,-10.855 -31.58,-21.718 -47.57,-32.285 -3.09,-2.051 -7.35,-2.281 -10.57,-4.195 -11.24,-6.684 -22.03,-14.184 -33.47,-20.492 -8.74,-4.824 -18.3,-8.145 -27.31,-12.5 -28.09,-13.551 -56,-27.481 -84.16,-40.879 -12.92,-6.153 -27.37,-9.766 -39.09,-17.559 -10.07,-6.695 -17.18,-17.812 -25.77,-26.797 -6.02,-6.308 -11.71,-13.203 -18.7,-18.222 -6.12,-4.395 -11.1,-7.696 -10.91,-16.504 0.09,-4.004 -3.71,-8.961 -7.09,-11.973 -6.24,-5.547 -16.14,-7.812 -14.49,-19.433 0.19,-1.266 -3.04,-4.352 -4.67,-4.352 -9.79,0.016 -9.71,-7.484 -12.88,-13.91 -7.85,-15.957 -18.02,-30.742 -26.3,-46.5 -5.34,-10.18 -8.37,-21.543 -13.55,-31.797 -4.53,-8.949 -8.84,-21.488 -16.46,-24.613 -13.8,-5.664 -11.95,-18.946 -18.97,-27.403 -3.8,-4.566 -5.51,-10.898 -8.18,-16.425 -0.17,-0.348 -0.84,-0.641 -0.8,-0.86 4.6,-19.449 -10.82,-33.75 -13.29,-51.582 -2.43,-17.558 9.62,-24.488 20.58,-32.129 19.9,-13.886 43.31,-12.613 65.48,-10.547 30.91,2.895 59.77,13.985 86.49,30.196 2.21,1.328 5.23,1.25 7.75,2.168 7.69,2.754 9.65,9.082 3.28,14.257 -12.03,9.825 -9.59,21.055 -3.63,31.797 9.23,16.621 19.22,32.348 34.47,45.235 18.73,15.8 33.07,36.836 51.88,52.519 24.86,20.742 51.96,39.004 84.86,45.332 3.11,0.586 7.59,-0.152 9.9,-2.09 10.41,-8.828 20.9,-17.73 30.04,-27.793 4.13,-4.55 5.23,-11.875 7.59,-17.988 1.25,-3.222 2.23,-6.543 3.67,-10.801 16.02,17.524 30.64,33.262 58.56,26.465 -7.12,-12.359 -13.97,-23.531 -20.03,-35.136 -2.84,-5.45 -3.81,-11.836 -6.21,-17.54 -7.96,-18.964 -15.57,-37.988 -38.23,-44.976 -4.03,-1.25 -6.1,-8.305 -9.52,-12.289 -6.96,-8.106 -14.21,-15.977 -21.37,-23.922 -4.9,-5.434 -3.73,-8.969 3.14,-11.215 15.8,-5.176 30.98,-5.953 47.01,0.938 31.63,13.613 64.02,25.429 95.75,38.847 11.03,4.668 21.14,11.621 31.38,18.012 2.21,1.383 4.62,4.922 4.45,7.281 -1.92,25.844 13.82,43.012 28.8,60.766 10.65,12.633 20.78,25.703 31.1,38.609 0.71,0.899 0.82,2.364 1.63,3.067 27.95,24.32 56.53,47.949 83.73,73.07 18.42,17.008 39.18,28.883 62.91,35.641 4.75,1.347 13.15,0.238 15.45,-2.93 2.44,-3.375 1.52,-11.832 -1.2,-15.836 -11.14,-16.449 -23.82,-31.84 -35.35,-48.012 -6.93,-9.726 -11.91,-20.937 -19.42,-30.113 -7.37,-8.988 -16.81,-16.25 -25.38,-24.242 -11.73,-10.957 -23.1,-22.34 -35.4,-32.633 -9.63,-8.07 -20.5,-14.652 -30.66,-22.113 -4,-2.926 -7.59,-6.465 -11.31,-9.785 -2.32,-2.071 -4.81,-6.305 -6.77,-6.055 -10.91,1.426 -16.47,-8.086 -18.28,-13.711 -2.73,-8.574 -1.3,-19.625 1.56,-28.613 4.07,-12.813 13.84,-21.563 27.4,-25.254 1.78,-0.489 3.34,-1.817 5,-2.754" /><path
         id="path18"
         style="fill:#231f20;fill-opacity:1;fill-rule:evenodd;stroke:none"
         d="m 4541.45,698.906 c -12.5,10.449 -22.6,4.555 -32.72,-2.793 -8.28,-6.035 -16.19,-14.98 -25.41,-16.773 -15.41,-3.031 -17.55,-18.047 -28.06,-24.668 -4.1,-2.582 -8.81,-4.184 -13.22,-6.274 -1.72,-0.82 -4.26,-1.386 -4.91,-2.753 -4.82,-10.254 -13.47,-13.282 -23.9,-14.391 -2.23,-0.238 -4.69,-4.535 -5.9,-7.445 -5.67,-13.536 -11.68,-26.485 -26.9,-32.223 -2.77,-1.039 -4.72,-4.496 -6.87,-7.016 -2.5,-2.968 -4.67,-8.648 -7.19,-8.769 -10.51,-0.504 -11.87,-9.922 -17.46,-15.235 -11.58,-11.054 -24.22,-20.996 -36.23,-31.621 -4.9,-4.355 -10.43,-8.633 -13.63,-14.121 -10.94,-18.73 -27.68,-31.972 -42.54,-47.012 -13.73,-13.886 -25.47,-31.66 -41.99,-40.308 -16.39,-8.578 -22.66,-23.91 -34.89,-34.75 -14.2,-12.617 -25.84,-28.066 -39.67,-41.113 -10.52,-9.922 -22.77,-18.047 -34.21,-26.993 -2.74,-2.144 -6.47,-3.906 -7.84,-6.773 -6.4,-13.383 -21.36,-12.578 -31.68,-19.375 -1.44,-0.957 -8.08,2.77 -9.39,5.66 -1.31,2.891 -0.29,9.102 2.03,10.996 14.38,11.621 29.43,22.422 44.24,33.516 1.25,0.957 3.01,1.918 3.4,3.223 4.98,16.347 23.55,20.195 31.09,32.152 8.89,14.098 27.78,18.59 31.33,37.906 1.31,7.094 14.02,11.914 21.15,18.184 2.58,2.265 4.14,5.722 5.98,8.73 0.99,1.66 1.25,3.887 2.48,5.274 15.98,18.144 32.21,36.074 48.09,54.297 4.02,4.628 7.07,10.117 10.52,15.214 1.55,2.27 2.83,4.727 4.57,6.817 5.8,7.011 11.78,13.871 17.68,20.801 -0.72,0.918 -1.45,1.859 -2.19,2.777 -2.87,0 -6.17,0.933 -8.55,-0.141 -30.57,-13.789 -62.05,-11.777 -93.91,-6.426 -5.37,0.899 -11.72,0.997 -16.54,-1.054 -6.31,-2.656 -11.27,-5.235 -16.84,0.918 -1.03,1.156 -5.02,1.504 -5.99,0.547 -16.37,-15.938 -32.49,-32.129 -50.47,-50.079 -13.79,0.278 -21.43,-13.222 -30.43,-24.785 -2.33,-2.984 -3.79,-7.246 -6.78,-9.043 -15.63,-9.375 -31.02,-19.55 -47.72,-26.519 -8.16,-3.418 -19.19,-1.723 -28.53,-0.043 -7.23,1.293 -12.19,1.703 -19.61,-1.973 -9.51,-4.726 -21.62,-4.375 -32.66,-5.82 -1.56,-0.195 -4.37,1.371 -4.92,2.773 -5.43,13.868 -21.01,22.364 -20.76,39.239 0.04,2.226 -1.45,4.492 -1.45,6.718 0.02,4.864 -1.07,12.934 1.14,14.043 13.51,6.778 12.67,21.645 19.43,32.016 1.88,2.867 0.53,7.832 0.65,11.836 -3.95,-0.473 -8.91,0.426 -11.64,-1.645 -9.32,-7.05 -18.11,-12.285 -29.54,-4.101 -1.79,1.289 -6.07,1.054 -8.08,-0.235 -9.2,-5.894 -18.62,-11.718 -26.78,-18.906 -8.71,-7.652 -17.52,-11.152 -28.83,-7.461 -2.13,0.703 -5.6,1.114 -6.89,-0.058 -17.21,-15.703 -39.12,-15.547 -60.18,-18.946 -6.6,-1.054 -12.62,-5.722 -18.87,-8.75 -0.35,-0.152 -0.56,-0.703 -0.89,-0.777 -10.36,-2.426 -20.73,-4.809 -31.1,-7.191 -0.56,1.171 -1.15,2.343 -1.74,3.515 8.21,4.848 15.86,12.071 24.69,14.004 15.22,3.344 26.7,12.813 39.96,19.301 13.11,6.402 26.23,12.793 39.69,18.394 8.59,3.555 16.89,10.196 27.36,5.274 0.92,-0.43 3.34,0.668 4.07,1.738 4.9,7.149 12.69,6.367 19.78,8.516 16.47,4.98 32.19,12.367 48.52,17.929 16.05,5.469 32.67,9.399 48.69,15 10.1,3.536 19.84,8.399 29.24,13.614 17.03,9.472 32.91,21.449 50.74,28.91 12.62,5.293 27.5,8.961 41.68,4.801 5.55,-1.621 9.86,-7.5 17.26,-13.477 -13.75,-8.73 -25.58,-17.305 -38.36,-24.156 -29.29,-15.746 -52.81,-36.078 -59.47,-70.57 -1.62,-8.457 -2.19,-17.207 -2.34,-25.821 -0.06,-2.691 2.21,-6.758 4.53,-7.89 4.67,-2.286 12.25,-5.821 14.88,-3.844 14.16,10.625 27.4,22.516 40.49,34.469 13.56,12.382 27.27,24.726 39.59,38.3 6.56,7.231 11.82,16.563 14.63,25.86 1.31,4.297 -4.24,11.094 -7.5,16.23 -6.19,9.746 -8.69,19.278 -1.23,29.531 1.83,2.524 3.94,5.45 4.22,8.36 0.86,9.164 0.54,18.848 11.46,22.48 8.42,2.793 17.11,4.864 25.74,6.953 7.97,1.938 16.43,2.442 23.97,5.411 11.95,4.707 17.68,-2.344 23.3,-10.293 3.36,-4.762 4.18,-13.535 13.42,-7.364 1.31,-2.675 4.37,-6.992 3.65,-7.769 -12.17,-13.07 -9.32,-29.574 -8.87,-44.574 0.28,-8.946 4.89,-20.137 11.41,-26.036 12.95,-11.718 30.16,-11.035 47.05,-9.472 25.45,2.344 40.66,22.129 60.43,34.14 7.34,4.454 14.02,10.04 20.8,15.372 2.25,1.777 4,4.238 5.7,6.605 1.22,1.715 1.45,4.82 2.95,5.523 25.37,11.856 36.8,37.715 56,55.801 8.12,7.656 12.69,19.024 20.62,26.992 12.95,12.969 27.41,24.399 41.02,36.719 6.04,5.469 11.43,11.66 17.4,17.227 6.99,6.543 14.59,12.246 23.44,2.992 5.66,-5.941 2.6,-17.699 -5.41,-25.707 -5.51,-5.504 -10.25,-11.754 -15.45,-17.578 -1.58,-1.754 -3.57,-4.59 -5.27,-4.532 -12.01,0.489 -15.26,-9.14 -20.57,-16.66 -8.38,-11.914 -17.25,-23.496 -25.57,-35.468 -1.79,-2.579 -2.2,-6.133 -3.61,-10.332 10.82,-0.84 16.84,2.617 20.35,11.488 3.32,8.336 8.05,14.098 18.89,15.078 5.96,0.523 10.98,8.609 16.95,12.461 24.44,15.625 46.53,35.371 76.15,41.836 17.43,3.805 40.75,-5.688 45.84,-22.445 2.91,-9.59 3.74,-22.012 0.06,-30.934 -7.63,-18.617 -14.16,-38.188 -29.94,-52.871 -7.71,-7.168 -11.25,-18.617 -18.22,-26.797 -9.28,-10.863 -20.35,-20.16 -30,-30.727 -2.93,-3.222 -4.04,-8.261 -5.47,-12.636 -2.05,-6.289 -2.79,-13.125 -5.59,-19.004 -8.16,-17.168 -10.89,-21.328 -31.87,-16.211 -4.59,1.113 -10.04,-2.012 -14.96,-1.621 -13.3,1.093 -26.62,2.519 -39.75,4.828 -7.58,1.344 -9.33,6.695 -6.48,14.137 2.3,5.976 5.21,12.636 4.63,18.671 -1.82,18.75 11.54,30.61 19.55,44.278 16.66,28.437 37.61,35.293 69.72,27.422 3.29,-0.801 8.66,2.011 11.39,4.785 5.43,5.547 11.25,11.64 14.1,18.633 4.63,11.367 7.25,23.593 10.26,35.586 1.4,5.586 1.7,11.464 2.38,16.347" /><path
         id="path20"
         style="fill:#231f20;fill-opacity:1;fill-rule:evenodd;stroke:none"
         d="m 3138.09,1150.41 c 10.65,7.77 20.76,16.47 32.11,23.05 12.75,7.36 26.74,12.56 39.94,19.2 6.53,3.28 12.35,7.97 18.77,11.48 8.13,4.44 16.21,9.26 24.88,12.29 22.68,7.91 43.5,19.77 65.32,29.37 18.59,8.2 38.49,13.56 58.04,19.34 20.94,6.19 42.15,11.45 63.24,17.09 3.01,0.8 6.02,2.07 9.05,2.13 17.38,0.31 36.13,-3.77 51.87,1.36 26.39,8.62 48.4,-5.15 71.27,-9.72 38.07,-7.6 69.42,-31.31 94.1,-61.62 8.95,-10.98 16.14,-23.83 16.02,-39.63 -0.08,-10.04 1.89,-20.45 4.94,-30.06 6.82,-21.47 0.41,-41.25 -4.92,-61.6 -2.48,-9.44 -2.07,-19.65 -2.7,-29.52 -1.23,-19 -5.82,-36.52 -16.56,-52.87 -6.93,-10.505 -10.12,-23.415 -15.64,-34.919 -7.86,-16.386 -15.67,-32.871 -24.83,-48.515 -3.45,-5.879 -11.56,-8.868 -15.84,-14.493 -3.45,-4.531 -5.08,-10.878 -6.23,-16.679 -1.89,-9.547 -1.5,-19.688 -4.45,-28.828 -2.21,-6.856 -8.18,-12.481 -12.4,-18.731 -5.98,-8.824 -12.21,-17.5 -17.66,-26.64 -2.58,-4.317 -3.61,-9.571 -5.33,-14.391 4.26,0.172 8.71,-0.414 12.71,0.664 12.37,3.316 24.51,7.359 36.82,10.836 1.97,0.547 4.35,-0.371 7.46,-3.164 -5.37,-2.832 -10.47,-6.641 -16.19,-8.336 -15.29,-4.516 -30.72,-8.75 -46.35,-11.836 -10.94,-2.168 -15.66,-9.707 -16.76,-18.598 -1.62,-13.105 -10.47,-20.605 -18.26,-29.273 -2.17,-2.422 -6.13,-5.395 -5.78,-7.543 1.58,-9.981 -4.47,-15.332 -10.53,-21.25 -14.88,-14.609 -26.38,-31.289 -37.26,-49.375 -8.52,-14.18 -14.75,-28.984 -21.25,-43.731 -3.32,-7.519 -2.46,-16.972 -2.85,-25.586 -0.06,-1.406 3.02,-3.652 5.04,-4.312 13.16,-4.32 26.4,-8.48 39.35,0.777 2.87,2.051 5.66,4.809 8.91,5.625 3.92,0.996 8.3,0.274 12.5,0.313 -1.9,-4 -2.7,-9.824 -5.86,-11.699 -18.28,-10.879 -37.11,-20.86 -55.8,-31.075 -7.76,-4.257 -15.31,-9.082 -23.5,-12.285 -4.2,-1.64 -9.57,-0.293 -14.39,-0.293 -0.3,1.27 -0.57,2.539 -0.84,3.809 9.67,5.957 19.31,11.918 30.76,18.945 -8.71,2.461 -16.13,5.899 -23.71,6.367 -13.71,0.84 -16.06,10.664 -18.38,20.567 -2.03,8.672 -5.16,17.929 -3.89,26.347 1.86,12.383 4.06,27.032 11.76,35.727 14.84,16.773 19.47,36.48 26.25,56.402 5.82,17.071 16.48,32.461 24.75,48.731 1.97,3.887 2.89,8.285 5.42,15.762 -14.45,-0.895 -25.89,-1.778 -37.34,-2.247 -4.86,-0.214 -9.78,0.782 -14.67,0.625 -21.34,-0.644 -42.69,-2.031 -64.02,-2.089 -8.83,-0.016 -17.64,3.476 -26.5,3.789 -9.4,0.312 -18.07,4.218 -28.69,0.078 -7.39,-2.871 -18.31,3.437 -27.68,5.469 -4.55,0.98 -9.49,2.988 -13.73,2.05 -16.35,-3.633 -30.84,-1.109 -45.49,7.5 -7.15,4.2 -17.32,2.95 -25.66,5.606 -9.61,3.066 -18.62,8.008 -28.11,11.562 -3.77,1.43 -8.3,0.766 -12.21,1.977 -7.2,2.222 -14.19,5.113 -21.27,7.769 -7.5,2.813 -15.15,5.313 -22.4,8.653 -5,2.304 -9.41,5.824 -15.62,9.765 -4.08,-1.23 -11.47,-5.777 -12.82,5.957 -0.07,0.704 -3.55,0.766 -5.17,1.621 -6.19,3.282 -12.27,6.758 -18.38,10.196 -0.29,0.176 -0.31,0.761 -0.61,0.996 -16.07,12.25 -32.2,24.433 -48.2,36.797 -2.91,2.246 -7.4,5.058 -7.54,7.793 -0.62,12.992 -7.61,22.09 -15.53,31.425 -8.78,10.356 -11.13,22.192 -5.99,35.626 6.37,16.66 10.82,34.066 17.6,50.512 4.68,11.32 11.93,21.6 18.02,32.34 0.2,0.35 0.43,0.78 0.76,0.9 17.39,6.46 18.85,25.82 30.16,37.2 0.84,0.84 1.45,2.02 2.42,2.64 15.51,10.12 31.23,19.93 46.59,30.29 12.16,8.23 23.53,17.66 35.91,25.53 7.13,4.53 15.57,7.03 23.4,10.41 -5.88,-11.44 -14.61,-19.98 -25.66,-26.5 -7.39,-4.36 -14.53,-9.22 -21.43,-14.32 -5.17,-3.81 -9.63,-11.76 -14.67,-11.99 -18.02,-0.84 -20.66,-19.04 -32.63,-26.29 -4.57,-2.75 -8.38,-7.05 -11.9,-11.19 -4.92,-5.82 -8.04,-14.08 -14.08,-17.87 -16.03,-10 -14.67,-31.35 -29.16,-41.86 -0.41,-0.29 -0.06,-1.541 -0.16,-2.342 -1.97,-15.449 -8.06,-29.882 -8.26,-46.148 -0.11,-9.691 2.17,-15.746 6.82,-23.051 6.74,-10.605 14.32,-21.402 17.56,-33.222 2.52,-9.2 7.58,-12.989 14.49,-16.875 3.56,-1.993 6.88,-4.391 10.31,-6.598 5.24,-4.164 10.55,-7.602 15.94,-10.879 9.2,-5.59 18.24,-11.449 27.71,-16.527 9.42,-5.02 19.4,-8.985 28.87,-13.883 3.5,-1.82 5.92,-6.352 9.48,-7.328 22.44,-6.172 45.13,-11.422 67.59,-17.539 15.43,-4.2 30.47,-9.844 45.98,-13.711 6.81,-1.699 15.84,1.953 21.27,-1.231 16.87,-9.859 35.58,-3.437 52.93,-8.164 6.72,-1.836 14.73,1.66 22.05,1.289 15.31,-0.816 30.56,-3.609 45.88,-3.711 23.1,-0.152 46.29,0.606 69.35,2.285 13.15,0.942 26.14,4.336 39.12,6.915 2.48,0.507 5.84,1.859 6.82,3.808 6.86,13.789 12.73,28.106 19.92,41.699 3.48,6.543 9.09,11.953 13.85,17.793 0.66,0.821 2.6,0.805 3.03,1.645 7.75,14.879 15.43,29.762 22.91,44.785 1.01,2.008 -0.06,5.602 1.31,6.852 7.18,6.621 13.16,13.476 12.36,24.238 -0.16,1.933 1.64,4.902 3.42,5.937 14.24,8.418 13.73,24.809 18.98,37.422 7.52,18.086 9.28,38.461 21.74,54.851 2.74,3.59 4.08,8.47 5.18,12.98 5,20.78 8.67,41.95 14.72,62.43 8.05,27.13 9.01,55.03 1.21,81.01 -6.46,21.54 -12.22,47.23 -39.37,55.84 -2.13,0.69 -3.63,3.11 -5.72,4.04 -14.71,6.65 -29.16,14.04 -44.34,19.3 -10.92,3.77 -22.83,4.82 -34.38,6.6 -6.69,1.04 -13.59,1.96 -20.29,1.49 -14.43,-1.02 -28.81,-2.86 -43.18,-4.6 -11.96,-1.44 -23.91,-3.1 -35.8,-5.03 -2.07,-0.33 -3.87,-2.44 -5.76,-3.77 -3.7,-2.62 -7.03,-6.39 -11.14,-7.7 -10.25,-3.26 -21.03,-4.82 -31.25,-8.12 -21.64,-6.97 -43.2,-14.24 -64.53,-22.11 -13.04,-4.82 -25.62,-10.94 -38.38,-16.54 -9.18,-4.05 -18.55,-7.72 -27.4,-12.41 -12.23,-6.46 -24,-13.75 -36.04,-20.6 -8.35,-4.75 -16.62,-9.75 -25.27,-13.91 -6.5,-3.13 -13.55,-5.06 -20.35,-7.54" /><path
         id="path22"
         style="fill:#231f20;fill-opacity:1;fill-rule:evenodd;stroke:none"
         d="m 2057.29,445.703 c 18.8,12.539 29.78,27.109 36.23,47.539 5.68,17.91 14.99,34.805 10.05,55.137 -2.43,10.043 -7.07,12.168 -15.75,10.918 -17.82,-2.559 -29.14,-13.184 -38.9,-27.832 -5.21,-7.832 -14.17,-14.903 -22.98,-18.145 -9.67,-3.554 -16.3,-8.648 -21.35,-16.914 -5.26,-8.594 -9.45,-18.105 -15.93,-25.644 -15.91,-18.59 -31.83,-37.403 -49.76,-53.922 -11.8,-10.879 -6.23,-17.582 0.77,-26.078 10.23,-12.422 39.49,-16.739 50.87,-7.262 16.12,13.434 37.87,19.375 50.24,37.848 0.82,1.23 4.18,0.586 5.36,1.797 6.16,6.234 20.01,8.593 11.15,22.558 z m 692.38,124.902 c -10.1,-4.257 -20.82,-7.421 -30.1,-13.007 -14.72,-8.844 -28.57,-19.219 -42.65,-29.137 -13.13,-9.262 -25.98,-18.871 -39.14,-28.07 -2.39,-1.676 -5.78,-1.856 -8.48,-3.203 -4.78,-2.383 -11.38,-4.004 -13.65,-7.989 -4.18,-7.281 -11.78,-9.844 -16.45,-14.804 -12.99,-13.711 -32.32,-16.836 -44.78,-29.43 -14.83,-15 -33.32,-21.195 -52.27,-24.711 -19.35,-3.594 -39.02,-0.836 -54.47,14.418 -6.62,6.543 -9.26,21.25 -3.22,29.644 11.19,15.625 22.87,30.981 35.33,45.606 7.71,9.043 17.26,16.543 26.09,24.844 -8.61,5.879 -16.97,11.621 -26.58,18.203 -12.32,-14.043 -24.65,-28.516 -37.44,-42.578 -26.13,-28.731 -48.13,-60.899 -79.45,-85.45 -15.63,-12.207 -32.93,-19.218 -49.34,-28.75 -2.54,-1.48 -5.94,-1.875 -8.96,-2.05 -14.67,-0.86 -29.4,-2.539 -43.99,-1.758 -7.77,0.414 -15.82,4.297 -22.85,8.222 -7.95,4.415 -13.75,1.172 -20.61,-2.07 -24.25,-11.426 -48.23,-23.769 -73.32,-33.047 -24.43,-9.043 -47.91,-1.015 -67.07,14.629 -7.51,6.113 -9.79,18.969 -13.69,29.043 -1.43,3.676 -0.68,8.203 -1.12,15.883 -8.72,-6.234 -14.58,-10.863 -20.88,-14.848 -19.93,-12.617 -36.67,-30.742 -61.22,-35.429 -7.62,-1.446 -15.3,-2.774 -22.8,-4.762 -18.64,-4.984 -31.75,9.351 -47.55,14.043 -6.93,2.066 -12.28,11.383 -17.05,18.297 -5.76,8.34 -6.6,16.816 1.15,25.683 14.5,16.582 27.77,34.223 42.05,50.996 7.09,8.34 14.8,16.313 23.08,23.442 18.81,16.148 38.34,31.5 57.23,47.578 15.89,13.512 34.81,18.672 54.77,21.637 6.8,1.035 13.81,4.613 20.2,3.617 25.88,-4.067 28.89,-27.621 24.76,-47.68 -2.26,-10.992 -2.38,-22.441 -3.47,-33.789 11.05,-1.738 49.98,40.117 48.36,51.445 4.54,2.168 9.36,3.301 12.64,6.192 12.23,10.762 24.4,21.64 35.73,33.32 12.7,13.125 24.04,27.539 36.76,40.645 9.02,9.32 21.15,13.3 33.98,13.183 9.05,-0.097 12.23,-6.328 7.33,-14.16 -5.74,-9.199 -12.6,-17.734 -19.08,-26.484 -18.19,-24.547 -35.67,-49.688 -54.99,-73.321 -8.18,-10.019 -20.25,-16.851 -30.54,-25.195 -1.5,-1.211 -3.58,-2.422 -4.09,-4.043 -4.22,-13.359 -12.66,-23.222 -24.3,-30.699 -8.96,-5.766 -17.7,-11.875 -26.62,-17.719 -1.9,-1.25 -5.01,-1.445 -6.04,-3.105 -7,-11.051 -15.4,-21.699 -19.88,-33.77 -6.24,-16.797 6.98,-32.597 23.72,-38.277 16.78,-5.707 29.53,3.277 43.22,7.301 13.64,4.027 26.53,11.972 38.32,20.214 5.08,3.555 10.55,13.536 8.99,18.379 -5.51,16.977 5.23,26.739 13.26,37.911 8.3,11.527 17.11,22.675 25.82,33.906 2.64,3.398 5.22,7.168 8.63,9.609 7.58,5.371 13.64,11.094 17.74,20.156 3.22,7.071 11.36,11.875 17.19,17.813 24.43,24.941 54.1,40.043 88.26,45.976 4.25,0.743 10.19,-2.304 13.75,-5.429 2.52,-2.207 1.79,-7.754 3.49,-11.383 4.12,-8.871 5.45,-17.035 -3.94,-23.383 -1.99,-1.348 -4.59,-1.816 -7.87,-2.051 7.13,8.594 7.98,16.856 0,24.278 -8.56,7.91 -17.37,4.961 -25.77,-0.86 -21.28,-14.765 -37.89,-33.769 -51.77,-55.605 -7.56,-11.895 -17.78,-22.086 -25.37,-33.961 -4.77,-7.461 -6.9,-16.621 -10.57,-25.941 11.17,-2.95 18.22,-3.223 22.42,6.347 1.02,2.324 3.89,5.512 5.86,5.488 14.02,-0.156 19.2,12.071 27.95,19.2 9.38,7.636 18.98,15.039 27.64,23.457 5.47,5.332 9.33,12.328 13.98,18.554 2.42,3.243 4.98,6.407 7.48,9.59 1.49,-0.859 2.99,-1.718 4.47,-2.578 -2.53,-4.98 -4.33,-10.566 -7.77,-14.824 -12.07,-14.918 -24.33,-29.746 -37.34,-43.828 -4.61,-4.981 -11.51,-7.852 -17.48,-11.485 -6.62,-4.019 -13.44,-7.769 -20.1,-11.757 -11.68,-7.012 -23.42,-13.926 -34.86,-21.289 -3.07,-1.954 -5.2,-5.333 -7.76,-8.067 2.68,-2.5 4.98,-5.625 8.07,-7.363 20.19,-11.192 39.57,-12.481 58.28,3.965 5.74,5.039 14.86,6.465 20.12,11.82 10.62,10.816 24.8,16.504 34.27,29.82 14.59,20.508 33.52,37.934 50.53,56.739 5.82,6.445 11.76,12.851 16.95,19.785 9.59,12.851 18.09,26.562 28.29,38.886 3.37,4.082 10.62,7.09 15.97,6.915 8.21,-0.27 6.06,-8.243 6.6,-13.926 0.45,-4.531 0.55,-9.864 2.97,-13.281 7.48,-10.547 11.06,-11.114 19.12,-1.133 13.15,16.269 31.21,25.097 49.11,33.73 6.48,3.125 15.74,0.512 24.41,0.512 -0.16,-3.07 0.51,-5.668 -0.45,-6.664 -12.32,-12.774 -25.02,-25.195 -37.32,-37.988 -10.47,-10.86 -20.57,-22.071 -30.75,-33.204 -6.58,-7.187 -13.43,-14.179 -19.45,-21.812 -5,-6.371 -8.73,-13.711 -13.42,-20.332 -3.4,-4.828 -8.3,-8.735 -10.95,-13.871 -2.13,-4.141 -4.13,-10.86 -2.21,-13.961 2.5,-4.086 9.49,-8.695 13.59,-7.914 14.08,2.621 28.38,6.094 41.35,11.996 8.87,4.019 15.51,12.793 23.44,19.098 3.89,3.085 8.61,5.136 12.64,8.07 21.01,15.269 41.75,30.914 62.93,45.973 20.39,14.492 40.31,29.941 62.01,42.167 20.76,11.7 42.4,23.399 67.57,23.204 19.89,-0.157 24.36,-7.481 16.37,-25.641 -1.07,-2.445 -0.58,-5.59 -0.84,-8.418 3.21,0.133 6.43,0 9.57,0.484 1.86,0.293 3.5,2.071 5.33,2.246 2.19,0.215 4.46,-0.585 6.68,-0.933 -1.01,-1.875 -1.77,-5.141 -3.1,-5.395 -24.59,-4.648 -38.32,-25.898 -57.87,-38.242 -19.3,-12.207 -35.06,-29.863 -53.03,-44.316 -8.28,-6.676 -17.23,-14.688 -29.24,-11.422 -5.21,1.402 -11.58,4.937 -13.63,9.312 -1.33,2.793 3.26,9.942 6.91,13.243 16.21,14.691 33.64,28.046 49.46,43.125 17.38,16.582 33.49,34.511 50.15,51.859 -1.11,1.949 -2.22,3.922 -3.34,5.894" /><path
         id="path24"
         style="fill:#231f20;fill-opacity:1;fill-rule:evenodd;stroke:none"
         d="m 2894.77,569.805 c -5.2,2.812 -8.38,4.511 -13.03,7.011 8.13,2.618 14.51,5.996 21.12,6.504 8.59,0.645 19.02,3.266 23.73,-8.023 4.61,-11.02 3.18,-21.504 -4.61,-30.746 -13.73,-16.289 -27.78,-32.301 -41.25,-48.809 -3.66,-4.449 -6.12,-10.058 -8.36,-15.445 -2.66,-6.293 2.09,-12.621 8.65,-11.567 28.16,4.473 55.94,9.532 80.47,26.075 28.12,18.965 57.77,35.683 85.6,55.019 17.09,11.875 33.58,25.43 47.45,40.844 13.53,15.035 21.38,31.422 18.34,55.738 -3.74,29.668 -21.21,44.649 -41.53,58.711 -15.58,10.781 -33.34,19.453 -51.33,25.473 -18.3,6.109 -38.18,7.398 -57.16,11.695 -8.93,2.012 -17.39,6.137 -25.8,10.606 5.15,0 10.5,0.902 15.4,-0.176 14.03,-3.086 27.84,-7.047 41.76,-10.567 16.21,-4.082 33.36,-5.976 48.4,-12.656 18.71,-8.32 38.05,-18.008 52.76,-31.777 16.58,-15.527 31.13,-35.039 32.67,-59.668 0.94,-15.117 -0.92,-28.496 -13.2,-41.641 -12.15,-13.008 -24.61,-25.215 -38.18,-36.523 -6.18,-5.172 -11.55,-11.778 -18.48,-15.465 -9.63,-5.141 -13.67,-17.871 -27.99,-17.539 -5.49,0.113 -10.51,-10.844 -16.93,-14.887 -15.28,-9.59 -31.39,-17.793 -46.88,-27.07 -6.85,-4.121 -12.36,-10.836 -19.55,-14 -25.1,-11.078 -51.15,-20.434 -79.06,-16.352 -10.61,1.543 -21.08,7.602 -30.22,13.711 -3.42,2.285 -5.5,11.723 -3.63,15.821 6.31,13.925 11.41,27.949 24.57,39.027 14.28,12.027 23.63,29.879 36.27,46.676" /><path
         id="path26"
         style="fill:#231f20;fill-opacity:1;fill-rule:evenodd;stroke:none"
         d="m 1183.4,908.848 c 4.01,10.351 8.39,20.586 11.95,31.074 3.09,9.125 5.07,18.594 7.98,27.773 0.81,2.52 3.21,4.551 4.88,6.817 1.52,-2.422 4.52,-5.039 4.24,-7.246 -0.71,-5.567 -2.51,-11.114 -4.58,-16.387 -5.81,-14.824 -11.97,-29.531 -18,-44.277 -2.16,0.742 -4.31,1.503 -6.47,2.246" /><path
         id="path28"
         style="fill:#231f20;fill-opacity:1;fill-rule:evenodd;stroke:none"
         d="m 2811.68,552.344 c 17.35,12.035 36.53,18.91 57.78,20.019 0.49,-1.425 0.97,-2.832 1.46,-4.258 -19.35,-6.386 -38.71,-12.769 -58.06,-19.16 -0.4,1.133 -0.79,2.27 -1.18,3.399" /><path
         id="path30"
         style="fill:#231f20;fill-opacity:1;fill-rule:evenodd;stroke:none"
         d="m 2887.41,758.613 c -27.66,-7.285 -51.12,-5.859 -65.8,3.242 24.14,-1.171 44.98,-2.207 65.8,-3.242" /></g></g></svg>